<svg id="Ebene_1" data-name="Ebene 1" xmlns="http://www.w3.org/2000/svg" viewBox="0 0 553.28 714.78"><path d="M301.59,715.15c.24-2.6-.34-5.19-.4-7.78-.07-3.66.83-7.26,1.45-10.85A37.71,37.71,0,0,1,309,681.2c1.87-2.66,4.68-4.67,7.07-7a8.61,8.61,0,0,0,1-.81c4.34-5.59,10.52-6.52,17-7.08s13.13,0,19.63-1.15c5.67-1,10.7-3.41,15.68-6.18,4.55-2.54,7.9-6.37,11.63-9.79,7.19-6.58,13.8-13.92,21.53-19.77,10.55-8,19.56-17.5,29.32-26.25,3.11-2.78,6.62-5,9.76-7.72,4.22-3.64,8.27-7.49,12.37-11.27,5.09-4.7,9.77-10,15.34-14,7.94-5.76,14.45-13,21.84-19.32,3-2.6,6.61-4.5,9.47-7.43,3.84-3.94,8.21-7.36,12.11-11.24,2.34-2.33,5.41-3.51,7.75-5.84,5.34-5.34,11.47-9.9,16.23-15.8a30.9,30.9,0,0,0,6.84-15.3,142.22,142.22,0,0,0,1.11-14.56,29.7,29.7,0,0,1,4.66-15.21,44,44,0,0,1,16.77-14.71,73,73,0,0,1,15.46-5.61,18.52,18.52,0,0,1,7.55-.56c2.76.39,3.52,1.71,2.37,4.2-1.29,2.77-3.56,4.88-5.08,7.53-3,5.3-6.51,10.35-10,15.41-2.6,3.78-2.32,8,0,11.82C580.8,490.94,587,496,595.76,497.1c4.35.55,7.5-1.11,10-4.77,4.43-6.44,8.49-13.11,12.74-19.66a14.46,14.46,0,0,1,3.33-3.82,2.54,2.54,0,0,1,3.76.27c2.3,2.31,2.77,5.43,3.43,8.32,1.35,5.84,2.26,11.78,1.62,17.83A38.32,38.32,0,0,1,625.34,512c-1.73,2.75-3.93,5.13-5.54,8-.85,1.49-2.45,2.36-3.81,3.33A34.8,34.8,0,0,1,611.2,526c-6.34,3.22-13.22,2.93-20.05,3.18-7.52.28-15.12.19-22.22,3.4-3.95,1.79-7.36,4.41-11,6.66-6.52,4-11.46,9.78-17.06,14.82-6,5.43-11.6,11.48-18.07,16.32-6.27,4.67-11.71,10.13-17.41,15.36-8.58,7.89-17.08,15.87-25.62,23.8l-20,18.61c-8.64,8-17.25,16.1-25.91,24.12q-10.95,10.15-22,20.23a6.48,6.48,0,0,0-1.52,2,9.66,9.66,0,0,1-2.89,3.62c-4.55,3.43-7.49,8.09-9.71,13.15-1.63,3.69-1.94,7.74-2.16,11.79-.24,4.26.51,8.43.39,12.68-.2,6.9-1.74,13.25-5.66,19-1,1.51-2.56,2.42-3.82,3.66-2.52,2.47-5.09,4.9-7.65,7.33-3.19,3-7.23,4.73-11.09,6.51a56.24,56.24,0,0,1-15.87,5.11,17.26,17.26,0,0,1-3.8,0c-1.62-.12-2.78-2.54-1.55-3.47,2.78-2.11,3.06-5.68,5.26-8.08a17.72,17.72,0,0,0,3.38-5.84c1.26-3.48,3.87-6,6.08-8.74,5-6.24,4.69-13.6-.54-19.68-1.93-2.23-3.49-4.72-6-6.44-4.89-3.33-9.86-6.28-16-6.38-1.42,0-2.84,0-4.24-.14-4.12-.44-7,1.58-9,4.84-3.57,5.92-7.4,11.66-11.18,17.44-1.61,2.48-2.73,5.26-4.77,7.47-1.25,1.36-2,1.33-3.57,0C301.51,724.8,300.93,720.25,301.59,715.15Z" transform="translate(-229.14 -42.65)"/><path d="M451.18,583.75c-2.36-2.83-3.93-5.68-4-9.43-.05-5.7-4.3-9.7-7.23-14.05-5.75-8.56-8.59-8.27-13.61.85a14.73,14.73,0,0,1-7.18,6.32c-4.43,2.08-4.65,3.93-1.73,7.83A32.18,32.18,0,0,0,429,585.06c4.33,2.18,6.71,6.87,10.84,9.54,3.11,2,5.52,4.17,8.9,0,2.2-2.71,5-1.83,6.29,1.5a9.92,9.92,0,0,0,6.45,6.34,6.12,6.12,0,0,1,4.11,3.89,113.66,113.66,0,0,0,5.87,12.74c1.9,3.79,2.24,8.55,2.51,12.94.4,6.38.13,12.8.13,19.21,0,2.28-.47,4.18-3.29,4.42-2.54.21-4.14-.5-4.95-3.23-1.52-5.1-3.85-9.87-4.93-15.22-2-9.68-13.2-18.82-23.11-20.08a42.59,42.59,0,0,1-7.18-1.93c-3.25-1-6.36-1.44-9.3.89-1.54,1.21-2.63.82-3.09-1.15-.53-2.28-1.79-2.33-3.4-1a9,9,0,0,1-5.47,1.84,5.08,5.08,0,0,0-2.28.49c-5.44,3.28-11,6.46-16.22,10-4.65,3.15-5.82,7.78-3.91,13.54-3-1-4.57-2.93-5.93-4.88-2.8-4-3.56-8.67-3.42-13.45.08-2.77,1.49-4.7,3.88-6.37q10.73-7.53,21.08-15.6c3.77-2.92,3.17-5.28-1.69-10.1-3-2.94-5.91-3.95-9.68-1.47-2.61,1.7-5.59,2.73-8.11,4.69a8.81,8.81,0,0,1-10,.75c-2.68-1.43-5.16-1.09-7.91-.21-6.92,2.23-12.11,6.35-15.29,12.94A5.61,5.61,0,0,1,348.5,608a30.93,30.93,0,0,0-10.17,15.52C336,631.6,330.82,638.06,327,645.3c-5.21,10-12.06,18.93-17.43,28.79a11.66,11.66,0,0,1-5.29,5.09,13.3,13.3,0,0,0-7.5,9.48c-1.33,5.6-2.64,11.2-4,16.79-1.29,5.24-4.2,9.19-9.25,11.45-3.79,1.71-6.2.74-7.7-3.13a21.85,21.85,0,0,1-1.24-8.09c0-21.31-.07-42.62.09-63.94.05-7-1.56-13.72-2.14-20.6-.75-8.94-2.84-17.77-2.57-26.81.11-3.47-.77-5.59-4.74-5.37-2,.11-3.05-1.22-3.71-3a16.28,16.28,0,0,1-.5-10.4,39,39,0,0,0,1-8.52c.21-3.89-.55-7.23-3.77-9.78a5.37,5.37,0,0,1-2.29-4.4c.38-5.69-1.56-11.09-1.82-16.69a22.92,22.92,0,0,0-2.46-8.62c-1.08-2.36-2.69-2.45-4.1-.38-1.68,2.48-3.62,4.77-4.88,7.56a8.13,8.13,0,0,1-7.41,5c-2.31.1-4.51-.45-5.62-2.79a5.26,5.26,0,0,1,1-6.21c3.28-3.2,4.74-7,6.31-11.27s3.37-8,3.45-12.43a1.76,1.76,0,0,1,.34-1.1c5.24-5.16,3.6-12.17,4.94-18.36.58-2.71,1.5-5,4.25-6.13,1.81-.72,2.3-2.16,2.66-4,1.73-8.67,3.75-17.27,5.41-25.94,2-10.52,3.59-21.12,5.69-31.62,1.37-6.84,1.34-14.13,5.61-20.18a.58.58,0,0,0,.17-.35c-.48-10.12,6.49-17.48,10-26.05,3.67-8.85,5.68-18.34,9.78-26.8,4.49-9.24,6.39-19,9.25-28.56,1.77-5.95,6.64-10.29,9.14-15.92.26-.6.77-1.09,1-1.7,4.64-12.95,14.9-21.43,24.25-30.69A255.53,255.53,0,0,0,357.14,242c5-6.67,10-13.44,16.61-19,6.84-5.77,13.52-12.38,16.67-21.36,1.16-3.32,4.76-3.89,6.93-6.1,3.74-3.8,7.69-7.39,11.53-11.09a4.45,4.45,0,0,0,1.32-4.3c-1-5.32-.4-10.7-.54-16a14.35,14.35,0,0,1,2-7.06c2.8-5.44,5.77-10.86,3.87-17.43-.36-1.25.23-2.84.59-4.22,3-11.29,8.72-21.4,13.68-31.83,1.27-2.68,4.19-3.86,6.55-5.49,1.61-1.12,3.7-2,4.07-4,1.1-6.06,5.68-9.5,9.64-13.4a8.39,8.39,0,0,0,2.77-6.21A18.63,18.63,0,0,1,466,56.57c4.58-1.49,8.82-3.5,12-7.08,2.72-3.06,6.55-2.8,9.84-4.14,5.91-2.41,12-2.13,18.07-2.56,12.63-.88,24.19,2.54,35.86,6.79,7.85,2.86,15.21,7,23.38,9a7.27,7.27,0,0,1,4,2.38c1.65,2,3.94,3,6.27,3.85,8,3,14.85,7.93,21.07,13.78a58.37,58.37,0,0,0,7.4,5.78,30.48,30.48,0,0,1,9.65,9.56c1.68,2.81,5.35,3,7.58,5.39,5,5.31,10.5,10.46,14,16.79,5.22,9.41,12.62,17.85,15.08,28.55,2.28,10,6.57,19.6,5.95,30.18-.15,2.58-1,5.07-.55,7.77.75,4.66,4.08,7.61,7,10.67a294.52,294.52,0,0,0,25.58,24.24c6.08,5.13,11.61,10.9,17.41,16.35,8.76,8.21,17.46,16.49,26.33,24.58,11.56,10.55,22.46,21.72,33.17,33.12,5.47,5.82,10.06,12.29,15.41,18.15,1.64,1.8,2.87,3.81,1,5.87s-4.51,1-5.82-.71c-5-6.59-11.28-9.08-19.36-7.56a6.49,6.49,0,0,1-4.81-1.4c-5.8-4.13-12.5-6.52-18.69-9.87-8-4.34-15.63-9.48-23.73-13.68-9.64-5-17.76-12.52-27.81-16.75-6-2.53-11.57-5.9-17.31-8.94-2.9-1.53-4.78-4.78-8.52-5-.47,0-1.14-1.15-1.25-1.84-.95-6.19-5.92-7.17-10.51-7-9.18.25-17.74-3-26.67-3.9-4-.42-4.17,0-3.3,3.93,2,9.14,4.82,18.06,4.95,27.65.1,6.72,1.54,13.45,1.36,20.27-.34,12.71-2.71,25-8.47,36.32-2.7,5.3-6.53,10-7.8,16-3.38,16-11.84,30.06-17.58,45.16-.76,2-1.82,3.71-4.28,4.12-1.81.3-2.87,1.76-3.64,3.32-1.58,3.15-3.18,6.3-4.59,9.54A31.81,31.81,0,0,1,567,415.67c-3.45,3.4-4.39,8.43-7.76,12.12-4.63,5.07-8.45,10.9-12.63,16.38-11.6,15.23-25.61,28.17-38.68,42-5.68,6-11.54,12.06-19.16,16-3.42,1.78-5.84,5.15-8.71,7.76-9.17,8.33-18.66,16.38-26.47,26.11-3.49,4.35-3.74,5.83-1.06,10.55,2.85,5,3.67,9.58-.17,14.87-3.42,4.71-4.84,10.38-2.45,16.37A35,35,0,0,1,451.18,583.75Zm1.54-403.6c7.29-.66,14-1.37,19.86-5.31,1.17-.79,2.8-1.42,2.76-3.06-.09-3.07,1.45-6,.34-9.21a11.23,11.23,0,0,1,.61-7.63c2.35-6.1,1-8.64-5.13-11.19-.72-.29-3.85-.32-1.33-2.61.7-.64.25-.74-.31-1-2.37-1-4.43-2.67-7.36-1.79s-5.57,1-8.37,2.93c-3.86,2.65-9.1,2.87-13.85,3.77-1.89.36-4,.66-4.77,2.88-.89,2.73-2.81,3.78-5.49,4.28-1.14.21-5-.32-1.79,3,.71.74-.32,1.65-1,2.25-.86.76-1.57,1.83-.66,2.69,4.36,4.15,1.62,6.48-2,8.67-.53.33-1.31.65-1.07,1.42a1.65,1.65,0,0,0,1.94,1c3-.48,5.49.92,7.58,2.61C438.71,178.82,446.22,178.55,452.72,180.15Z" transform="translate(-229.14 -42.65)"/></svg>