<svg width="678" height="908" viewBox="0 0 678 908" fill="none" xmlns="http://www.w3.org/2000/svg">
<path d="M89.5197 853.35C89.813 850.051 89.1043 846.764 89.031 843.478C88.9455 838.833 90.0451 834.265 90.8026 829.71C91.9715 822.711 94.6259 816.071 98.5733 810.27C100.858 806.895 104.291 804.344 107.211 801.388C107.643 801.077 108.051 800.734 108.433 800.36C113.736 793.267 121.287 792.086 129.204 791.376C137.121 790.665 145.246 791.376 153.188 789.917C160.116 788.648 166.261 785.589 172.346 782.075C177.905 778.852 181.998 773.992 186.555 769.652C195.34 761.302 203.416 751.988 212.861 744.565C225.751 734.414 236.759 722.359 248.684 711.256C252.484 707.728 256.773 704.911 260.609 701.46C265.765 696.841 270.713 691.956 275.723 687.159C281.942 681.195 287.66 674.47 294.465 669.394C304.166 662.085 312.12 652.898 321.149 644.879C324.815 641.58 329.226 639.169 332.72 635.451C337.412 630.451 342.751 626.111 347.516 621.188C350.375 618.231 354.126 616.734 356.985 613.777C363.509 607.001 370.999 601.215 376.815 593.729C381.269 588.18 384.162 581.462 385.172 574.314C385.928 568.184 386.381 562.017 386.528 555.839C386.701 548.987 388.669 542.314 392.222 536.538C397.394 528.592 404.451 522.163 412.711 517.872C418.729 514.768 425.066 512.38 431.601 510.754C434.595 509.86 437.736 509.618 440.825 510.043C444.197 510.538 445.126 512.213 443.721 515.373C442.145 518.888 439.371 521.565 437.514 524.928C433.849 531.653 429.56 538.061 425.296 544.482C422.119 549.278 422.461 554.633 425.296 559.48C430.66 568.845 438.235 575.266 448.938 576.662C454.253 577.359 458.101 575.253 461.156 570.609C466.569 562.437 471.529 553.973 476.722 545.662C477.793 543.81 479.17 542.169 480.79 540.814C481.104 540.502 481.476 540.262 481.885 540.109C482.293 539.956 482.728 539.894 483.161 539.926C483.594 539.958 484.015 540.085 484.398 540.297C484.781 540.509 485.117 540.802 485.384 541.157C488.195 544.088 488.769 548.047 489.575 551.715C491.225 559.125 492.336 566.662 491.554 574.339C491.006 581.841 488.79 589.108 485.079 595.568C482.965 599.058 480.277 602.078 478.31 605.72C477.272 607.611 475.317 608.715 473.655 609.945C471.793 611.233 469.836 612.366 467.803 613.333C460.056 617.419 451.65 617.051 443.305 617.369C434.117 617.724 424.832 617.61 416.157 621.683C411.331 623.954 407.164 627.279 402.717 630.134C394.751 635.21 388.715 642.544 381.873 648.939C374.542 655.83 367.7 663.507 359.795 669.648C352.134 675.574 345.488 682.502 338.523 689.139C328.04 699.151 317.655 709.277 307.221 719.339L282.785 742.954C272.228 753.105 261.709 763.383 251.128 773.56C242.209 782.147 233.249 790.703 224.248 799.23C223.476 799.942 222.845 800.805 222.391 801.768C221.59 803.574 220.378 805.151 218.86 806.362C213.301 810.714 209.709 816.627 206.996 823.048C205.005 827.73 204.626 832.87 204.357 838.009C204.064 843.414 204.98 848.706 204.834 854.099C204.589 862.854 202.708 870.912 197.918 878.208C196.696 880.124 194.79 881.279 193.251 882.852C190.172 885.987 187.032 889.07 183.904 892.154C180.007 895.96 175.07 898.156 170.354 900.414C164.237 903.564 157.702 905.75 150.964 906.898C149.421 907.076 147.864 907.076 146.321 906.898C144.342 906.746 142.925 903.675 144.428 902.495C147.824 899.818 148.166 895.288 150.854 892.242C152.675 890.07 154.077 887.554 154.984 884.832C156.523 880.416 159.712 877.218 162.413 873.741C168.522 865.823 168.143 856.484 161.753 848.769C159.395 845.939 157.489 842.78 154.422 840.597C148.447 836.372 142.375 832.628 134.873 832.502C133.138 832.502 131.403 832.502 129.693 832.324C124.659 831.766 121.14 834.329 118.696 838.465C114.335 845.977 109.655 853.261 105.037 860.595C103.07 863.742 101.701 867.27 99.2086 870.074C97.6814 871.8 96.765 871.762 94.8468 870.074C89.422 865.595 88.7133 859.821 89.5197 853.35Z" fill="#0BD068"/>
<path d="M272.289 686.614C269.405 683.023 267.487 679.406 267.402 674.648C267.341 667.415 262.148 662.339 258.568 656.819C251.543 645.957 248.073 646.325 241.939 657.898C239.955 661.51 236.868 664.332 233.167 665.917C227.754 668.557 227.485 670.904 231.053 675.853C234.745 681.104 239.592 685.363 245.189 688.276C250.48 691.042 253.388 696.993 258.434 700.381C262.233 702.919 265.178 705.673 269.308 700.381C271.996 696.943 275.417 698.059 276.993 702.285C277.598 704.178 278.629 705.896 279.999 707.294C281.369 708.693 283.04 709.733 284.873 710.33C286.031 710.672 287.092 711.299 287.967 712.159C288.841 713.018 289.502 714.084 289.895 715.266C291.963 720.803 294.358 726.202 297.067 731.432C299.388 736.241 299.804 742.281 300.134 747.852C300.623 755.947 300.293 764.094 300.293 772.228C300.293 775.121 299.718 777.532 296.273 777.836C293.169 778.103 291.215 777.202 290.225 773.738C288.368 767.266 285.521 761.213 284.201 754.425C281.758 742.142 268.074 730.544 255.966 728.945C252.978 728.396 250.043 727.576 247.193 726.496C243.222 725.227 239.422 724.669 235.83 727.625C233.949 729.161 232.617 728.666 232.055 726.166C231.407 723.273 229.868 723.209 227.901 724.897C225.98 726.416 223.632 727.237 221.217 727.232C220.255 727.212 219.301 727.425 218.432 727.854C211.785 732.016 204.992 736.051 198.614 740.543C192.933 744.54 191.503 750.415 193.837 757.724C190.171 756.455 188.253 754.006 186.591 751.532C183.17 746.456 182.242 740.53 182.413 734.465C182.511 730.95 184.233 728.501 187.154 726.382C195.893 720.012 204.479 713.413 212.909 706.586C217.515 702.881 216.782 699.887 210.844 693.77C207.179 690.04 203.623 688.758 199.017 691.905C195.828 694.062 192.187 695.369 189.108 697.856C187.407 699.286 185.325 700.144 183.143 700.314C180.96 700.484 178.778 699.958 176.89 698.808C173.616 696.993 170.586 697.425 167.226 698.541C158.771 701.371 152.43 706.599 148.544 714.961C148.147 715.886 147.564 716.713 146.834 717.385C140.849 722.474 136.512 729.348 134.408 737.079C131.561 747.332 125.232 755.529 120.565 764.716C114.2 777.405 105.83 788.736 99.2691 801.248C97.8405 804.068 95.5736 806.333 92.8058 807.707C90.472 808.818 88.4249 810.487 86.8321 812.578C85.2393 814.669 84.1461 817.122 83.6422 819.736C82.0172 826.842 80.4167 833.948 78.755 841.041C77.1789 847.69 73.6234 852.703 67.4533 855.571C62.8227 857.74 59.8781 856.51 58.0454 851.599C56.9223 848.307 56.4083 844.824 56.5304 841.333C56.5304 814.292 56.4449 787.252 56.6404 760.198C56.7014 751.316 54.7344 742.789 54.0257 734.059C53.1094 722.714 50.5558 711.51 50.8857 700.039C51.0201 695.636 49.9449 692.946 45.0943 693.225C42.6507 693.364 41.3678 691.677 40.5614 689.418C38.9723 685.207 38.7577 680.571 39.9505 676.221C40.7393 672.675 41.1491 669.049 41.1723 665.41C41.4289 660.474 40.5003 656.236 36.5661 653C35.7019 652.371 34.9963 651.536 34.5092 650.564C34.0222 649.592 33.768 648.512 33.7682 647.417C34.2325 640.196 31.8622 633.344 31.5445 626.238C31.2456 622.422 30.2242 618.705 28.5388 615.3C27.2193 612.305 25.2522 612.191 23.5295 614.818C21.4768 617.965 19.1065 620.871 17.567 624.411C16.8199 626.272 15.5642 627.864 13.9552 628.992C12.3462 630.119 10.4544 630.732 8.51347 630.756C5.6911 630.882 3.00314 630.185 1.64694 627.215C1.00595 625.94 0.778608 624.485 0.998768 623.065C1.21893 621.645 1.87482 620.337 2.86874 619.335C6.87626 615.275 8.66009 610.453 10.5783 605.035C12.4966 599.616 14.6958 594.883 14.7935 589.262C14.7774 588.761 14.9237 588.27 15.209 587.866C21.6112 581.318 19.6075 572.423 21.2447 564.569C21.9533 561.13 23.0774 558.224 26.4374 556.79C28.6488 555.876 29.2475 554.049 29.6873 551.714C31.8011 540.713 34.2691 529.8 36.2973 518.799C38.7409 505.45 40.6836 491.999 43.2494 478.675C44.9233 469.996 44.8866 460.745 50.1037 453.069C50.2201 452.95 50.2935 452.793 50.3114 452.624C49.7249 439.783 58.2409 430.444 62.5295 419.569C67.0135 408.339 69.4693 396.297 74.4787 385.562C79.9646 373.837 82.286 361.452 85.7804 349.321C87.943 341.771 93.8932 336.264 96.9477 329.12C97.2654 328.359 97.8885 327.737 98.1695 326.963C103.839 310.53 116.374 299.77 127.798 288.02C138.46 277.086 148.349 265.369 157.39 252.96C163.499 244.496 169.608 235.905 177.685 228.85C186.042 221.528 194.203 213.141 198.052 201.746C199.469 197.533 203.868 196.81 206.519 194.005C211.089 189.184 215.915 184.628 220.607 179.933C221.318 179.254 221.842 178.391 222.126 177.432C222.409 176.473 222.441 175.453 222.219 174.477C220.998 167.726 221.731 160.899 221.56 154.174C221.613 151.018 222.455 147.931 224.003 145.215C227.424 138.312 231.053 131.435 228.732 123.098C228.292 121.512 229.013 119.494 229.452 117.743C233.118 103.417 240.107 90.5883 246.167 77.3534C247.718 73.9527 251.286 72.4554 254.169 70.3871C256.137 68.9659 258.69 67.8492 259.142 65.3114C260.486 57.6217 266.082 53.2566 270.92 48.3078C271.983 47.3124 272.833 46.097 273.416 44.7399C273.999 43.3827 274.301 41.9139 274.305 40.4278C274.271 35.3403 275.819 30.3772 278.718 26.276C281.617 22.1748 285.712 19.1543 290.396 17.6634C295.992 15.7727 301.172 13.2221 305.058 8.67939C308.381 4.79649 313.06 5.1264 317.08 3.42605C324.301 0.367947 331.742 0.723248 339.158 0.177612C354.59 -0.939039 368.714 3.40067 382.972 8.79359C392.563 12.4227 401.556 17.676 411.538 20.2139C413.442 20.6371 415.159 21.6982 416.425 23.2339C418.441 25.7718 421.239 27.0407 424.086 28.1193C433.86 31.926 442.23 38.1818 449.829 45.605C452.648 48.298 455.672 50.7507 458.871 52.9394C463.629 56.0104 467.66 60.157 470.661 65.0703C472.714 68.6359 477.198 68.877 479.922 71.9098C486.031 78.6477 492.751 85.1827 497.028 93.215C503.405 105.156 512.447 115.865 515.452 129.443C518.238 142.132 523.48 154.314 522.722 167.739C522.539 171.013 521.5 174.172 522.05 177.598C522.966 183.511 527.035 187.255 530.603 191.138C540.42 202.029 550.857 212.301 561.856 221.896C569.285 228.406 576.042 235.728 583.128 242.643C593.831 253.061 604.461 263.568 615.298 273.833C629.422 287.22 642.74 301.394 655.826 315.86C662.509 323.245 668.117 331.455 674.653 338.891C676.657 341.175 678.16 343.725 675.875 346.339C673.591 348.953 670.365 347.608 668.764 345.439C662.655 337.076 654.982 333.917 645.11 335.845C644.066 335.969 643.009 335.875 642 335.57C640.991 335.265 640.051 334.755 639.233 334.069C632.147 328.828 623.961 325.796 616.398 321.545C606.623 316.038 597.301 309.515 587.404 304.186C575.626 297.841 565.705 288.299 553.426 282.931C546.095 279.721 539.29 275.445 532.277 271.587C528.733 269.646 526.436 265.522 521.867 265.243C521.293 265.243 520.474 263.783 520.34 262.908C519.179 255.053 513.106 253.81 507.498 254.025C496.282 254.343 485.824 250.219 474.913 249.077C470.026 248.544 469.818 249.077 470.881 254.063C473.324 265.661 476.77 276.98 476.929 289.149C477.051 297.676 478.81 306.216 478.591 314.87C478.175 330.998 475.279 346.593 468.242 360.957C464.943 367.683 460.263 373.647 458.712 381.26C454.582 401.563 444.246 419.404 437.232 438.565C436.304 441.103 435.009 443.272 432.003 443.793C429.792 444.173 428.497 446.026 427.556 448.005C425.625 452.003 423.67 456 421.948 460.111C420.091 465.03 417.322 469.522 413.798 473.333C409.583 477.648 408.434 484.03 404.317 488.713C398.66 495.146 393.993 502.544 388.886 509.497C374.713 528.823 357.595 545.243 341.626 562.792C334.686 570.406 327.527 578.095 318.216 583.095C314.038 585.354 311.081 589.63 307.575 592.942C296.371 603.512 284.776 613.727 275.233 626.073C270.969 631.593 270.664 633.471 273.938 639.46C277.42 645.805 278.422 651.617 273.731 658.329C269.552 664.306 267.817 671.501 270.737 679.102C271.462 681.554 271.982 684.068 272.289 686.614ZM274.17 174.477C283.077 173.639 291.276 172.738 298.435 167.739C299.865 166.736 301.857 165.937 301.808 163.856C301.698 159.96 303.579 156.242 302.223 152.169C301.372 148.951 301.636 145.524 302.968 142.487C305.84 134.747 304.19 131.524 296.701 128.288C295.821 127.92 291.997 127.882 295.075 124.976C295.931 124.164 295.381 124.037 294.697 123.707C291.801 122.438 289.284 120.319 285.704 121.436C282.124 122.552 278.899 122.705 275.478 125.154C270.762 128.516 264.359 128.796 258.556 129.938C256.247 130.394 253.669 130.775 252.728 133.592C251.64 137.056 249.294 138.389 246.02 139.023C244.627 139.29 239.911 138.617 243.833 142.83C244.701 143.769 243.442 144.924 242.611 145.685C241.56 146.649 240.693 148.007 241.805 149.098C247.132 154.364 243.784 157.321 239.361 160.1C238.714 160.519 237.761 160.925 238.054 161.902C238.232 162.377 238.572 162.768 239.008 163.001C239.445 163.235 239.948 163.295 240.424 163.171C244.09 162.562 247.132 164.338 249.685 166.483C257.053 172.789 266.229 172.446 274.17 174.477Z" fill="#0BD068"/>
</svg>
